/* XPM */
static char *_8825e65eba942f19bcf268e34b42606[] = {
/* columns rows colors chars-per-pixel */
"64 64 256 2 ",
"   c #041905",
".  c #092708",
"X  c #13270D",
"o  c #073808",
"O  c #133808",
"+  c #152612",
"@  c #182A13",
"#  c #1C331B",
"$  c #1A3815",
"%  c #21341B",
"&  c #233B1E",
"*  c #213515",
"=  c #253B22",
"-  c #09450C",
";  c #1C4D0A",
":  c #164608",
">  c #1D530D",
",  c #16500B",
"<  c #0D4E10",
"1  c #1C4D14",
"2  c #174614",
"3  c #0F5212",
"4  c #125415",
"5  c #1D5611",
"6  c #1D5A14",
"7  c #1C5C1B",
"8  c #165918",
"9  c #21560E",
"0  c #21580F",
"q  c #23431D",
"w  c #28481B",
"e  c #215711",
"r  c #225B15",
"t  c #225D1A",
"y  c #27591A",
"u  c #304E1F",
"i  c #1F601F",
"p  c #24611D",
"a  c #276017",
"s  c #1E4620",
"d  c #284827",
"f  c #334C24",
"g  c #2C5C23",
"h  c #275928",
"j  c #325224",
"k  c #355B2C",
"l  c #375B27",
"z  c #384838",
"x  c #2A5333",
"c  c #385B34",
"v  c #2A4E34",
"b  c #246323",
"n  c #2A6623",
"m  c #2A6A25",
"M  c #266A2B",
"N  c #2B6C2C",
"B  c #276627",
"V  c #34632C",
"C  c #3B642C",
"Z  c #346C2B",
"A  c #386929",
"S  c #2E702D",
"D  c #34722E",
"F  c #3B722D",
"G  c #2B6735",
"H  c #3B6B33",
"J  c #366937",
"K  c #2E7334",
"L  c #327434",
"P  c #3C7534",
"I  c #3D7A35",
"U  c #34763B",
"Y  c #357A3C",
"T  c #3B7C3C",
"R  c #397639",
"E  c #425A3D",
"W  c #43712C",
"Q  c #426B3B",
"!  c #436B34",
"~  c #447334",
"^  c #437C34",
"/  c #437D3B",
"(  c #4B7D3B",
")  c #487838",
"_  c #395D41",
"`  c #357C40",
"'  c #3A7B42",
"]  c #3A7445",
"[  c #3F6448",
"{  c #465A48",
"}  c #476A43",
"|  c #4A7C43",
" . c #4C7B4D",
".. c #447748",
"X. c #547C4A",
"o. c #497957",
"O. c #557656",
"+. c #516953",
"@. c #657D6A",
"#. c #3F803E",
"$. c #4D8234",
"%. c #45823C",
"&. c #4B843C",
"*. c #49843A",
"=. c #528539",
"-. c #548B3D",
";. c #568B3B",
":. c #59903F",
">. c #3C8244",
",. c #3D8449",
"<. c #428544",
"1. c #4A8443",
"2. c #458946",
"3. c #4C8B43",
"4. c #418649",
"5. c #42894D",
"6. c #4B8E4C",
"7. c #498148",
"8. c #528744",
"9. c #548C43",
"0. c #5A8D42",
"q. c #52844B",
"w. c #548B4B",
"e. c #598A4B",
"r. c #4E904D",
"t. c #5B9444",
"y. c #54934B",
"u. c #5C954A",
"i. c #5D994C",
"p. c #569245",
"a. c #458D53",
"s. c #498C55",
"d. c #5B8D52",
"f. c #568856",
"g. c #4C9155",
"h. c #4B9259",
"j. c #479057",
"k. c #539554",
"l. c #5C9352",
"z. c #5C9B54",
"x. c #5A9459",
"c. c #5C9C5B",
"v. c #569854",
"b. c #63944D",
"n. c #629B4C",
"m. c #629747",
"M. c #62865A",
"N. c #649554",
"B. c #639D52",
"V. c #6B9C52",
"C. c #639D5B",
"Z. c #6B9D5D",
"A. c #759F5F",
"S. c #5FA15B",
"D. c #66A153",
"F. c #6BA456",
"G. c #64A45C",
"H. c #6BA55A",
"J. c #6DAA5D",
"K. c #74A45C",
"L. c #72AC5E",
"P. c #588361",
"I. c #4F9765",
"U. c #5C9C61",
"Y. c #569764",
"T. c #5D9A71",
"R. c #689C63",
"E. c #779A67",
"W. c #759878",
"Q. c #688F6B",
"!. c #5AA26A",
"~. c #59A776",
"^. c #63A562",
"/. c #65A965",
"(. c #6DAC63",
"). c #69A66A",
"_. c #72A364",
"`. c #72AC62",
"'. c #79A869",
"]. c #6EB16A",
"[. c #75B264",
"{. c #7CBA6E",
"}. c #77B46A",
"|. c #6BAD74",
" X c #65A773",
".X c #78A876",
"XX c #6BB47C",
"oX c #6DB273",
"OX c #7BBC73",
"+X c #75B779",
"@X c #7FC076",
"#X c #83A96D",
"$X c #85AB79",
"%X c #87B877",
"&X c #80BD6F",
"*X c #84C47C",
"=X c #8AC97C",
"-X c #89C478",
";X c #6BB582",
":X c #6CB783",
">X c #71BA84",
",X c #76B887",
"<X c #77C28E",
"1X c #7CC694",
"2X c #87BB89",
"3X c #92BA84",
"4X c #86BA94",
"5X c #93BE94",
"6X c #8CCC83",
"7X c #88C887",
"8X c #93C987",
"9X c #98D48A",
"0X c #85C697",
"qX c #99CA95",
"wX c #9CDC94",
"eX c #9ED19A",
"rX c #9DDD9A",
"tX c #A4D999",
"yX c #A6CE9F",
"uX c #9DE09E",
"iX c #A3E39A",
"pX c #ABE69E",
"aX c #A1E096",
"sX c #99CAA5",
"dX c #8AD0A0",
"fX c #A2CAAA",
"gX c #ADD7A3",
"hX c #B1DAB0",
"jX c #9FE4A3",
"kX c #AFECAA",
"lX c #AAE8A4",
"zX c #B4EAAD",
"xX c #B2F2AA",
"cX c #ACEEB0",
"vX c #B4E8B6",
"bX c #B5F2B4",
"nX c #BBF6B3",
"mX c #BAF5BB",
"MX c #BAF7B8",
"NX c #C0F9BA",
"BX c #BAD5C1",
"VX c #B9E7C3",
"CX c #BDF8C3",
"ZX c #C4E8C9",
"AX c #C5FACC",
"SX c #CAFFCD",
"DX c #C6FAC6",
"FX c #C5F9D2",
"GX c #CAFFD5",
"HX c #CBFFD9",
"JX c #CCF1D6",
"KX c #D2FED4",
"LX c #D4FFDD",
"PX c #D3F7D8",
"IX c #D8FFE2",
"UX c None",
/* pixels */
"UXUXUXUXUXUXUXUXUXUXUXUXUXUXUXUXUXUXUXUXUXUXUXUXUXUXUXUXUXUXUXUXUXUXUXUXUXUXUXUXUXUXUXUXUXUXUXUXUXUXUXUXUXUXUXUXUXUXUXUXUXUXUXUX",
"UXUXUXUXUXUXUXUXUXUXUXUXUXUXUXUXUXUXUXUXUXUXUXUXUXUXUXUXUXUXUXUXUXUXUXUXUXUXUXUXUXUXUXUXUXUXUXUXUXUXUXUXUXUXUXUXUXUXUXUXUXUXUXUX",
"UXUXUXUXUXUXUXUXUXUXUXUXUXUXUXUXUXUXUXUXUXUXUXUXUXUXUXUXUXUXUXUXUXUXUXUXUXUXUXUXUXUXUXUXUXUXUXUXUXUXUXUXUXUXUXUXUXUXUXUXUXUXUXUX",
"UXUXUXUXUXUXUXUXUXUXUXUXUXUXUXUXUXUXUXUXUXUXUXUXUXUXUXUXUXUXUXUXUXUXUXUXUXUXUXUXUXUXUXUXUXUXUXUXUXUXUXUXUXUXUXUXUXUXUXUXUXUXUXUX",
"UXUXUXUXUXUXUXUXUXUXUXUXUXUXUXUXUXUXUXUXUXUXUXUXUXhXZXNXUXUXtXtXUXUXZ.3X3X3X$XUXUXUXUXUXUXUXUXUXUXUXUXUXUXUXUXUXUXUXUXUXUXUXUXUX",
"UXUXUXUXUXUXUXUXUXUXUXUXUXUXUXUXUXUXUXUXUXUXZXLXKXSXNXbXUXUX8X_.UXUXe.b.B.F.L.#X#X$XUXUXUXUXUXUXUXUXUXUXUXUXUXUXUXUXUXUXUXUXUXUX",
"UXUXUXUXUXUXUXUXUXUXUXUXUXUXUXUXUXUXUXUXKXIXHXvXqXW.O.O.UXUXUXUXUXUXUX% = f C ( 0.V.K.#XUXUXUXUXUXUXUXUXUXUXUXUXUXUXUXUXUXUXUXUX",
"UXUXUXUXUXUXUXUXUXUXUXUXUXUXUXUXUXUXKXKXSXfXW.{ UXUXUXUXUXUXUXUXUXUXUXUXUXUXUXUX* l ) 0.K.#XUXUXUXUXUXUXUXUXUXUXUXUXUXUXUXUXUXUX",
"UXUXUXUXUXUXUXUXUXUXUXUXUXUXUXUXPXKXAXfX@.z UXUXUXUXUXUXUXUXgXyXUXUXUXE.UXUXUXUXUXUX@ w W :.A.#XUXUXUXUXUXUXUXUXUXUXUXUXUXUXUXUX",
"UXUXUXUXUXUXUXUXUXUXUXUXUXUXUXSXSXvXQ.z UXUXUXUXBXPXIXGXUXUXpXaXUXUXA.%X%X-X3X$XUXUXUXUX@ u ) m.#XUXUXUXUXUXUXUXUXUXUXUXUXUXUXUX",
"UXUXUXUXUXUXUXUXUXUXUXUXUXhXDXNXqX{ UXUXUXUXJXIXLXHXHXDXUXUXpXaXUXUXN.`.L.F.F.L.%X%XUXUXUXUX* C ;.K.E.UXUXUXUXUXUXUXUXUXUXUXUXUX",
"UXUXUXUXUXUXUXUXUXUXUXUXzXNXzX$Xz UXUXUXPXLXLXHXSXHXHXFXUXUXkXaXUXUXN.[.L.F.D.n.m.D.#X$XUXUXUX@ l =.V.#XUXUXUXUXUXUXUXUXUXUXUXUX",
"UXUXUXUXUXUXUXUXUXUXUXgXpXtXE.UXUXUXZXIXHXHXHXHXHXHXHXFXUXUXcXiXUXUXN.[.L.H.D.n.n.m.t.D.#XA.UXUXUXf =.V.E.UXUXUXUXUXUXUXUXUXUXUX",
"UXUXUXUXUXUXUXUXUXUX%X9X-XM.UXUXUXPXLXHXHXHXHXHXHXVXVXFXUXUXbXaXUXUXZ.[.L.H.D.n.m.n.i.t.m.V.#XUXUXUXu ( m.A.UXUXUXUXUXUXUXUXUXUX",
"UXUXUXUXUXUXUXUXUXUX%X&XX.UXUXUXKXSXHXFXHXHXJXhXW.@.fXFXUXUXmXiXUXUXN.[.F.F.D.n.m.n.n.t.:.:.m.#XUXUXUXl ( V.UXUXUXUXUXUXUXUXUXUX",
"UXUXUXUXUXUXUXUXUX%X[.q.UXUXUXNXMXDXFXFXHXVXW.{ UXVXHXFXUXUXbXuXUXUXl.J.L.D.n.n.m.i.m.i.:.:.:.m.#XUXUXUXl =.V.UXUXUXUXUXUXUXUXUX",
"UXUXUXUXUXUXUXUX%X_.e.f UXUXpXpXxXNXDXAXsX+.UXUXLXHXHXFXUXUXbXuXUXUXd.G.H.D.n.n.t.i.t.t.t.m.:.;.:.A.UXUX* A =.b.UXUXUXUXUXUXUXUX",
"UXUXUXUXUXUXUXUX[.N.c UXUXqX9X9XpXxXmX2X{ UXUXJXHXHXHXFXUXUXcXrXUXUXd.J.D.D.i.u.) t.t.t.t.:.:.;.=.0.A.UXUXw W =.UXUXUXUXUXUXUXUX",
"UXUXUXUXUXUXUX#XF.( UXUX#X-X-X=X9XpX$X{ UXUXUXIXGXGXHXFXUXUXmXwXUXUXw.(.D.D.z.t.! C 0.t.:.;.-.( ;.$.m.M.UXUXj ^ e.UXUXUXUXUXUXUX",
"UXUXUXUXUXUXUXK.0.k UXUX%X[.[.&X=X'.E UXUXUXIXHXGXHXHXFXUXUXcXwXUXUXw.D.D.z.i.i.8.UXC :.=.C w ! $.$.) b.UXUXw H &.UXUXUXUXUXUXUX",
"UXUXUXUXUXUXK.n.! UXUX'.J.H.L.&X_.} UXUXUXZXHXHXHXHXHXFXUXUXzX9XUXUXq.S.i.y.i.u.8.UX* j * UXUXu.$.^ ^ &.d.UXUXg P w.UXUXUXUXUXUX",
"UXUXUXUXUXUXV.;.k UXUX'.D.H.`.`.Q UXUXUXUXSXHXHXGXGXHXFXUXUXbX9XUXUX8.S.k.p.y.p.3.UXUXUXUXUXN.9.$.$.^ ^ w.UXUXq H 1.UXUXUXUXUXUX",
"UXUXUXUXUXK.n.( UXUX`.D.n.H.L.e.UXUXUXUXUXMXDXHXHXGXHXFXUXUXmXrXUXUXe.C.p.1.H d UXUXUXUXUXUXw.%.I I T T %.f.UXUXg I ( UXUXUXUXUX",
"UXUXUXUXUXV.m.! UXUXK.i.B.H.C.Q UXUXUXUX8XxXMXSXHXHXHXFXUXUXCXuXUXUXe.i.) & UXUXUXUXUXUXUXk H %.#.#.T I T 8.UXUXh A ) UXUXUXUXUX",
"UXUXUXUXUXn.9.UXUXN.V.n.D.D.w.UXUXUXUXUX=XwXiXMXSXAXSXFXUXUXmXjXeX4XoXz.x.M.UXUXUXUXUXUXUXUXq ] >.' ' R U / | UXUXn F UXUXUXUXUX",
"UXUXUXUXb.t.| UXUXK.n.n.B.n.) UXUXUXUXUXOX=X=XpXMXDXHXFXUXUXCXcX7XOX/.S.z.N.Z.'.Z.UXUXUXUXUXUXd ' Y ' U L L / UXUXg Z F UXUXUXUX",
"UXUXUXUXn.m.( UXUXD.n.D.B.i.! UXUXUXUXUX].@X@X=XaXbXSXFXUXUXAXcX7X+X^.v.y.&.%.%.&.UXUXR..X.XW.P.] ' ` U D S R UXUXy n A UXUXUXUX",
"UXUXUXUXm.0.) UXUXn.i.n.B.u.UXUXUXUXUXUXS.].(.].7XuXCXFXUXUXAXbX7X].G.y.*.*.^ %.<.UXUXc.a.a.h.Y.,.` K K N N Z UXUXy y n UXUXUXUX",
"UXUXUXUXm.0.~ UXUXu.p.u.u.8.UXUXUXUXUXUXy.G.S.S.].7XjXMXUXUXFXMX7X/.z.y.*.%.%.#.,.h. Xh.a.,.,.,.Y K G N B b p UXUX1 r a UXUXUXUX",
"UXUXUXUXt.9.UXUX9.t.t.p.p.1.UXUXUXUXUXUX1.v.z.c./.oX<XrXUXUXFXCX6XS.r.3.2.#.#.,.h. XY.a.5.>.Y ` K N M b b t t y UXUXe r UXUXUXUX",
"UXUXUXUXt.9.UXUX:.t.t.p.9.1.UXUXUXUXUXUX( y.y.k.S./.].@XUXUXSXCX<Xy.2.<.,.,.j.h.j.h.,.,.>.Y M M M b i 7 r 6 5 e UXUXe 0 UXUXUXUX",
"UXUXUXUX:.:.UXUX&.9.p.9.9.%.UXUXUXUXUXUXJ 1.6.2.g.S.c. XUXUXAXVXP.# h ,.h.j.j.a.,.,.` ` K M b b i 7 8 5 5 5 > 9 UXUXe 9 UXUXUXUX",
"UXUXUXUX-.9.UXUX*.=.3.-.9.*.UXUXUXUXUXUXUXR 2.,.2.r.k.c..X2XlXDXUXUX] a.a.a.,.` ` Y K M M i 7 7 r t 5 > e 0 5 ; UXUXr 9 UXUXUXUX",
"UXUXUXUX&.-.UXUX^ *.*.&.&.1.UXUXUXUXUXUXUXB #.#.>.>.>.5.5.6.^.rXUXUX] ,.` ` Y K U N M M B 7 t 6 t r 5 > 0 9 9 ; UXUX0 9 UXUXUXUX",
"UXUXUXUX( &.UXUXV ^ %.&.&.%.UXUXUXUXUXUXUXd J U #.Y ` ,.,.5.g.].UXUXJ U K K K K L S S M n p p a t r r e 9 9 9 : UXUX0 9 UXUXUXUX",
"UXUXUXUX~ *.P UXUX) %.%.%.1.UXUXUXUXUXUXUXUXx ` ,.,.a.' x x ] g.UXUX| <.K U Y ` U S S m B p b t t t t e 9 9 ; UXUX1 0 > UXUXUXUX",
"UXUXUXUX~ / ( UXUX/ 1.T %.1.q.UXUXUXUXUXUXUXUX] I.!.~.I.UXUX' r.UXUX|.^.2.#.>.>.L N S S m b t t t r t t 0 > ; UXUX0 9 ; UXUXUXUX",
"UXUXUXUXC *.8.UXUX) 3.1.7.6.U.UXUXUXUXUXUXUXUXv j.~.~.I.UXUX,.k.UXUX8X6XS.r.,.Y K N S S m B t r r 6 p r 0 , : UXUX9 > ; UXUXUXUX",
"UXUXUXUXk ^ d.UXUXQ w.k.v.v.).UXUXUXUXUXUXUXUXUXv I.~.I.UXUX,.k.UXUXeXcX9X/.2.L S S S S m m p 2 1 6 p r 0 ; O UXUXr ; O UXUXUXUX",
"UXUXUXUXUX| l.UXUXc x././.!. X,XUXUXUXUXUXUXUXUXUXv ] j.UXUX5.v.UXUXwXMXlX@XG.%.Y L S M m B 2 & g 5 6 6 5 , O UXUX9 ; UXUXUXUXUX",
"UXUXUXUXUX .C..XUXUXP.|.oXXXXX<XUXUXUXUXUXUXUXUXUXUX# G UXUX>.g.UXUXeXMXbXaX@XS.2.I K S b $ UXJ i 5 5 6 5 : UXUXg > : UXUXUXUXUX",
"UXUXUXUXUX..R.oXUXUXo.|.<XXXXX;X4XUXUXUXUXUXUXUXUXUXUXUXUXUXT 4.UXUXeXMXnXxX6X].v.2.K s + UXUXL 8 8 6 6 , O UXUXa ; O UXUXUXUXUX",
"UXUXUXUXUXUXY.+X,XUXUXY.XX:X;X;X,X4XUXUXUXUXUXUXUXUXUXUXUXUXs x UXUX7XpXkXpX8X'. .h @ UXUXUX2.m 7 8 8 5 : UXUXV 9 : UXUXUXUXUXUX",
"UXUXUXUXUXUXP.:X0XUXUXo. XXX:X:X>XdXUXUXUXUXUXUXUXUXUXUXUXUXUXUXUXUXUX+.} { z = UXUXUXUXUXd.L n p 6 6 1 o UXUXV ; O UXUXUXUXUXUX",
"UXUXUXUXUXUXUX|.1X0XUXUXo.>X<X<X,X>X2XUXUXUXUXUXUXUXUXUXUXUXUXUXUXUXUXUXUXUXUXUXUXUXUXUX).7.D m a t t - UXUXH r : UXUXUXUXUXUXUX",
"UXUXUXUXUXUXUXP.<X0XUXUX_ T.<X>XXX|. X,XW.UXUXUXUXUXUXUXUXUXUXUXUXUXUXUXUXUXUXUXUXUXUX3XG.3.I S n p e . UXUXZ > O UXUXUXUXUXUXUX",
"UXUXUXUXUXUXUXUXT.1XsXUXUX[  X|.).!.U.U.).2XUXUXUXUXUXUXUXUXUXUXUXUXUXUXUXUXUXUXUXUXeXOX).z.3.I I B $ UXUX) t O UXUXUXUXUXUXUXUX",
"UXUXUXUXUXUXUXUXo.<XdX4XUXUX_ Y.^.c.Y.c.d.x.R.Q.UXUXUXUXUXUXUXUXUXUXUXUXUXUXUXUXgXtX*XOX`.G.k.y.^ q UXUX .Z > O UXUXUXUXUXUXUXUX",
"UXUXUXUXUXUXUXUXUXP.>X0XUXUXUXc f.C.U.x.r./ D R f.M.UXUXUXUXUXUXUXUXUXUXUXUXyXtX9X6X*XOX`.G.G.8.d UXUXUX&.a $ UXUXUXUXUXUXUXUXUX",
"UXUXUXUXUXUXUXUXUXUXo.|.2XUXUXUXv q.C.w.1.P B 7 7 G ' ..UXUXUXO.UXUXUX3XqX9X6X=X@X@X{.{.`.(.w.v UXUXUXl.D 1 UXUXUXUXUXUXUXUXUXUX",
"UXUXUXUXUXUXUXUXUXUXd o. X2XUXUXUX= Q 1.I Z t 8 7 8 8 4 UXUXD T UXUX( G.[.{.{.{.OX].(.(.G. .= UXUXUX_.%.g @ UXUXUXUXUXUXUXUXUXUX",
"UXUXUXUXUXUXUXUXUXUXUXd ..R.$XUXUXUX+ w g b 7 4 4 3 4 4 UXUXb M UXUX/ y.H.J.(.[.}.(.H.l.k @ UXUXUX_.8.H & UXUXUXUXUXUXUXUXUXUXUX",
"UXUXUXUXUXUXUXUXUXUXUXUX= Q l..XW.UXUXUX. $ 4 4 3 3 4 3 UXUXi b UXUXP w.v.D.J.H./.z.Q % UXUXUX.X.X3.V % UXUXUXUXUXUXUXUXUXUXUXUX",
"UXUXUXUXUXUXUXUXUXUXUXUXUX# c 8.Z.E.UXUXUXUX  . - < 3 < UXUXi B UXUXP 3.t.z.z.8.k = UXUXUXUX.X(.3.g @ UXUXUXUXUXUXUXUXUXUXUXUXUX",
"UXUXUXUXUXUXUXUXUXUXUXUXUXUXUXw ! ( f.M.UXUXUXUX    . - UXUX7 t UXUXg V k j = + UXUXUXUX.X$Xc.1.d UXUXUXUXUXUXUXUXUXUXUXUXUXUXUX",
"UXUXUXUXUXUXUXUXUXUXUXUXUXUXUXUXX q y J q.O.UXUXUXUXUXUXUXUX. . UXUXUXX UXUXUXUXUXUXE..XG.8.V # UXUXUXUXUXUXUXUXUXUXUXUXUXUXUXUX",
"UXUXUXUXUXUXUXUXUXUXUXUXUXUXUXUXUXUX. O < h ` O.UXUXUXUXUXUXUXUXUXUXUXUXUXUXUXUX.X'.l.%.V & UXUXUXUXUXUXUXUXUXUXUXUXUXUXUXUXUXUX",
"UXUXUXUXUXUXUXUXUXUXUXUXUXUXUXUXUXUXUXUX. o o < b J  .] UXUXUXUXUXUXUXM.E.E.Z.l.%.F g & UXUXUXUXUXUXUXUXUXUXUXUXUXUXUXUXUXUXUXUX",
"UXUXUXUXUXUXUXUXUXUXUXUXUXUXUXUXUXUXUXUXUXUX  . o o - - UXUXt Z UXUXg P F F A g q X UXUXUXUXUXUXUXUXUXUXUXUXUXUXUXUXUXUXUXUXUXUX",
"UXUXUXUXUXUXUXUXUXUXUXUXUXUXUXUXUXUXUXUXUXUXUXUXUX    . UXUXo o UXUX2 O O X X UXUXUXUXUXUXUXUXUXUXUXUXUXUXUXUXUXUXUXUXUXUXUXUXUX",
"UXUXUXUXUXUXUXUXUXUXUXUXUXUXUXUXUXUXUXUXUXUXUXUXUXUXUXUXUXUXUXUXUXUXUXUXUXUXUXUXUXUXUXUXUXUXUXUXUXUXUXUXUXUXUXUXUXUXUXUXUXUXUXUX",
"UXUXUXUXUXUXUXUXUXUXUXUXUXUXUXUXUXUXUXUXUXUXUXUXUXUXUXUXUXUXUXUXUXUXUXUXUXUXUXUXUXUXUXUXUXUXUXUXUXUXUXUXUXUXUXUXUXUXUXUXUXUXUXUX",
"UXUXUXUXUXUXUXUXUXUXUXUXUXUXUXUXUXUXUXUXUXUXUXUXUXUXUXUXUXUXUXUXUXUXUXUXUXUXUXUXUXUXUXUXUXUXUXUXUXUXUXUXUXUXUXUXUXUXUXUXUXUXUXUX",
"UXUXUXUXUXUXUXUXUXUXUXUXUXUXUXUXUXUXUXUXUXUXUXUXUXUXUXUXUXUXUXUXUXUXUXUXUXUXUXUXUXUXUXUXUXUXUXUXUXUXUXUXUXUXUXUXUXUXUXUXUXUXUXUX"
};
