/* XPM */
static char *_6913b346f3f454a84fd12aaf0994213[] = {
/* columns rows colors chars-per-pixel */
"16 16 129 2 ",
"   c #133209",
".  c #183E0A",
"X  c #102A12",
"o  c #0E3710",
"O  c #133015",
"+  c #1B3C1C",
"@  c #19420B",
"#  c #19450B",
"$  c #1B460F",
"%  c #1C4D0C",
"&  c #194110",
"*  c #1F5617",
"=  c #1D5817",
"-  c #21481A",
";  c #254E1D",
":  c #205A15",
">  c #205A16",
",  c #23501E",
"<  c #245D1F",
"1  c #1F5221",
"2  c #284023",
"3  c #274D22",
"4  c #2B4E25",
"5  c #304C29",
"6  c #2F5327",
"7  c #2B522A",
"8  c #29552B",
"9  c #2A5829",
"0  c #34562B",
"q  c #35512F",
"w  c #3A5C2C",
"e  c #3C5F36",
"r  c #246220",
"t  c #266728",
"y  c #2E632C",
"u  c #3B662D",
"i  c #326A2F",
"p  c #366030",
"a  c #3A6231",
"s  c #376C3E",
"d  c #2E7233",
"f  c #307330",
"g  c #367A3E",
"h  c #367C3F",
"j  c #38793E",
"k  c #415E31",
"l  c #425E32",
"z  c #405835",
"x  c #426333",
"c  c #456F33",
"v  c #466E36",
"b  c #40603B",
"n  c #41633C",
"m  c #40673D",
"M  c #48633D",
"N  c #446D38",
"B  c #446C3B",
"V  c #4B6A3E",
"C  c #447937",
"Z  c #4B7439",
"A  c #3F6341",
"S  c #3E6A42",
"D  c #396E48",
"F  c #447640",
"G  c #497342",
"H  c #4A7B40",
"J  c #4D714E",
"K  c #47794A",
"L  c #517543",
"P  c #517942",
"I  c #557E41",
"U  c #587E56",
"Y  c #45803B",
"T  c #4F823D",
"R  c #52853B",
"E  c #438747",
"W  c #4C8043",
"Q  c #4C804E",
"!  c #448A4D",
"~  c #458A4F",
"^  c #4D8849",
"/  c #4F8B48",
"(  c #528840",
")  c #578845",
"_  c #5E994E",
"`  c #5E8750",
"'  c #5C8C54",
"]  c #5E8E56",
"[  c #51815A",
"{  c #639B4C",
"}  c #649A55",
"|  c #649459",
" . c #5DA05C",
".. c #69A454",
"X. c #558962",
"o. c #5B8B69",
"O. c #5E9762",
"+. c #6C876B",
"@. c #639561",
"#. c #6E9066",
"$. c #619D62",
"%. c #6F9F6A",
"&. c #6F8771",
"*. c #7C997E",
"=. c #65A36E",
"-. c #6EAD6F",
";. c #74A769",
":. c #78A76A",
">. c #74AF6A",
",. c #72B06F",
"<. c #69AE7B",
"1. c #80BC7A",
"2. c #809E87",
"3. c #87A48D",
"4. c #87B582",
"5. c #85B287",
"6. c #86B388",
"7. c #87B488",
"8. c #8DBC91",
"9. c #90BD95",
"0. c #96B99D",
"q. c #9DC9A0",
"w. c #A5CEAA",
"e. c #ACD7B6",
"r. c #AAE0AE",
"t. c #B5E1C0",
"y. c #B7E5C3",
"u. c #BEF1CA",
"i. c None",
/* pixels */
"i.i.i.i.i.i.i.i.i.i.i.i.i.i.i.i.",
"i.i.i.i.i.&.+.i.i.M z i.i.i.i.i.",
"i.i.i.i.*.3.0.i.i.` V l i.i.i.i.",
"i.i.i.#.w.t.e.7.| ..{ I l i.i.i.",
"i.i.L :.4.2.y.5.' _ T R Z w i.i.",
"i.x P } i.q.u.6.' H i.0 Y p 4 i.",
"i.v ) N i.1.r.9.,.W i.S j y ; i.",
"i.c ( i.i.^ -.8.$.E ~ g t * $ i.",
"i.u C 6 i.8 ! O.K h d r > % @ i.",
"i.a F Q i.i.D S @. .f < > $ . i.",
"i.A [ <.i.i.i.i.U ;.7 9 = &   i.",
"i.i.o.X.=.i.i.i.i.i.i.^ , - i.i.",
"i.i.i.J m i 1 i.i.;.>.G e i.i.i.",
"i.i.i.i.q + o i.3 N b n i.i.i.i.",
"i.i.i.i.i.X O i.i.5 2 i.i.i.i.i.",
"i.i.i.i.i.i.i.i.i.i.i.i.i.i.i.i."
};
