/* XPM */
static char *c5c1777477044e25dec282dba7c52975[] = {
/* columns rows colors chars-per-pixel */
"32 32 245 2 ",
"   c #062307",
".  c #0E2F05",
"X  c #0B220A",
"o  c #0C340B",
"O  c #143806",
"+  c #1B3616",
"@  c #123A10",
"#  c #1D3A1A",
"$  c #243A17",
"%  c #21381B",
"&  c #253B21",
"*  c #0C480F",
"=  c #164007",
"-  c #16450B",
";  c #1A4409",
":  c #1C4B0D",
">  c #1D520E",
",  c #0E4C10",
"<  c #164314",
"1  c #1A4911",
"2  c #1C4C19",
"3  c #1D5611",
"4  c #135817",
"5  c #1D5A13",
"6  c #155518",
"7  c #1C5C19",
"8  c #21560F",
"9  c #25421A",
"0  c #244D1E",
"q  c #215514",
"w  c #215A15",
"e  c #21551A",
"r  c #225E1A",
"t  c #295C1F",
"y  c #26651E",
"u  c #264024",
"i  c #2C4523",
"p  c #274F26",
"a  c #24462B",
"s  c #2B482E",
"d  c #2E5524",
"f  c #2B5A26",
"g  c #2E5128",
"h  c #26592A",
"j  c #2D5B2C",
"k  c #355E27",
"l  c #34572A",
"z  c #365E2E",
"x  c #3B5C29",
"c  c #2E5530",
"v  c #2F5833",
"b  c #2E5339",
"n  c #345A36",
"m  c #3B5A30",
"M  c #256423",
"N  c #2B6220",
"B  c #296824",
"V  c #2D6229",
"C  c #25682B",
"Z  c #2C6D2D",
"A  c #33652A",
"S  c #39672E",
"D  c #2C702D",
"F  c #34742D",
"G  c #3E6634",
"H  c #336E34",
"J  c #3E6B37",
"K  c #336F3F",
"L  c #396D3B",
"P  c #2F7232",
"I  c #2F7538",
"U  c #327434",
"Y  c #337539",
"T  c #3A7B3B",
"R  c #406732",
"E  c #446B35",
"W  c #436C3A",
"Q  c #427535",
"!  c #487433",
"~  c #477E36",
"^  c #4B7C36",
"/  c #41763A",
"(  c #437B3C",
")  c #4C7B3B",
"_  c #507D3C",
"`  c #3D6447",
"'  c #377E41",
"]  c #3B7C42",
"[  c #475E44",
"{  c #486A40",
"}  c #477B42",
"|  c #4D7A44",
" . c #487848",
".. c #527D40",
"X. c #587947",
"o. c #56794C",
"O. c #5C7C4A",
"+. c #536A54",
"@. c #467151",
"#. c #4C7B50",
"$. c #577057",
"%. c #557A50",
"&. c #5B7B51",
"*. c #59705F",
"=. c #4E8536",
"-. c #46823B",
";. c #4A833D",
":. c #4E883D",
">. c #52823D",
",. c #578F3D",
"<. c #3C8346",
"1. c #3D834A",
"2. c #438442",
"3. c #4C8342",
"4. c #4C8A44",
"5. c #42854A",
"6. c #46884C",
"7. c #4A8D49",
"8. c #548542",
"9. c #558B42",
"0. c #598C44",
"q. c #52854A",
"w. c #59814F",
"e. c #578B4C",
"r. c #5B8B4D",
"t. c #4F924E",
"y. c #579245",
"u. c #5C9343",
"i. c #5E9847",
"p. c #54914B",
"a. c #5B964C",
"s. c #5E994C",
"d. c #478757",
"f. c #458C51",
"g. c #4B8F50",
"h. c #5D8453",
"j. c #5A8C52",
"k. c #54895D",
"l. c #5D8C5F",
"z. c #4F9159",
"x. c #579457",
"c. c #5B9454",
"v. c #53945B",
"b. c #5A9E59",
"n. c #60814F",
"m. c #648E4D",
"M. c #63944B",
"N. c #629C4C",
"B. c #68875C",
"V. c #649755",
"C. c #6A9554",
"Z. c #659B54",
"A. c #62935B",
"S. c #6F945F",
"D. c #5EA15A",
"F. c #65A254",
"G. c #65A35C",
"H. c #6EA95A",
"J. c #71A35D",
"K. c #72AE5F",
"L. c #508560",
"P. c #578F60",
"I. c #4E9464",
"U. c #5B9361",
"Y. c #5E9F62",
"T. c #509768",
"R. c #5F9768",
"E. c #6A8E65",
"W. c #659B65",
"Q. c #729D62",
"!. c #769F71",
"~. c #7B9F76",
"^. c #63A264",
"/. c #6BAB62",
"(. c #68A868",
"). c #72A461",
"_. c #72AE62",
"`. c #70A76D",
"'. c #7CAE6A",
"]. c #74B366",
"[. c #73B56A",
"{. c #78B76A",
"}. c #65A170",
"|. c #65A27A",
" X c #6BA678",
".X c #7DA272",
"XX c #7EAD74",
"oX c #71A87A",
"OX c #6BB37C",
"+X c #73B875",
"@X c #7ABC71",
"#X c #7ABD78",
"$X c #7EC27D",
"%X c #8CBE7F",
"&X c #84C273",
"*X c #86C37E",
"=X c #73A582",
"-X c #6CB884",
";X c #70B781",
":X c #74BE89",
">X c #79B98C",
",X c #80A184",
"<X c #86BF85",
"1X c #91BF87",
"2X c #94B98B",
"3X c #8EAE92",
"4X c #8DB094",
"5X c #93B199",
"6X c #8DC680",
"7X c #8BCB83",
"8X c #93C889",
"9X c #9ACE95",
"0X c #95D295",
"qX c #9DD795",
"wX c #9EDA94",
"eX c #9DD999",
"rX c #A0D993",
"tX c #A1D59C",
"yX c #A1DD9D",
"uX c #A3E39D",
"iX c #A3C3A5",
"pX c #A6D3A3",
"aX c #A2DBA0",
"sX c #AAD9A4",
"dX c #AAD2A9",
"fX c #B7DFBC",
"gX c #A7E2AC",
"hX c #B2F3AA",
"jX c #AEE3B2",
"kX c #BBE6BD",
"lX c #B5EABD",
"zX c #B4E1C0",
"xX c #B8EBC2",
"cX c #BFEDCB",
"vX c #BFF1CB",
"bX c #C3EBCC",
"nX c #C4FBC6",
"mX c #C2F3CD",
"MX c #C5FDC9",
"NX c #C7F1D0",
"BX c #CBF7D6",
"VX c #CCFFD6",
"CX c #CCFFD9",
"ZX c #D1FFDD",
"AX c None",
/* pixels */
"AXAXAXAXAXAXAXAXAXAXAXAXAXAXAXAXAXAXAXAXAXAXAXAXAXAXAXAXAXAXAXAX",
"AXAXAXAXAXAXAXAXAXAXAXAXAXAXAXAXAXAXAXAXAXAXAXAXAXAXAXAXAXAXAXAX",
"AXAXAXAXAXAXAXAXAXAXAXAXdXpXAXXXAXh.Q.S.AXAXAXAXAXAXAXAXAXAXAXAX",
"AXAXAXAXAXAXAXAXAXiXfX3X$.AXAXAXAXAXAXi E m.n.AXAXAXAXAXAXAXAXAX",
"AXAXAXAXAXAXAXAXkX,XAXAXAX3XAX8XAXh.B.AXAXAXx m.AXAXAXAXAXAXAXAX",
"AXAXAXAXAXAX2XsX+.AX5XNXZXmXAXwXAXV.K.H.J.&.AX$ >.O.AXAXAXAXAXAX",
"AXAXAXAXAX.X%XAXAXbXZXCXvXxXAXyXAXV.H.N.M.N.C.AXAX_ O.AXAXAXAXAX",
"AXAXAXAXAX).AXAXnXVXvX4X5XzXAXaXAXV.H.N.N.i.u.M.AXAX_ AXAXAXAXAX",
"AXAXAXAX).m AXrXhXjX*.AXBXvXAXaXAXj.F.s.9.i.u.y.M.AX9 >.AXAXAXAX",
"AXAXAXm...AX'.&X6X[ AXbXCXvXAXeXAXe.F.a.R ^ ^ ! =.8.AXk W AXAXAX",
"AXAXAXM.AXw.H._.{ AXAXCXCXvXAXeXAXq.a.p.AXAXAX..^ -.W AX( AXAXAX",
"AXAXAX>.AXF.F.e.AXAX9XMXVXvXAXaXAXp.) i AXAXAX) ( T ) AXA AXAXAX",
"AXAX0.R AXZ.Z.m AXAX*XuXnXmXAXgX<XG.j.&.AXAXAXv ] T T AX0 A AXAX",
"AXAXu.AX..N.s.AXAXAX/.@XuXlXAXjX$Xb.4.;.T #.U.k.] Y D f AXN AXAX",
"AXAX0.AX8.i.8.AXAXAXp.D.+X0XAXlX#Xp.-.<.z.v.1.' I C M e AXw AXAX",
"AXAX9.AX:.y.;.AXAXAX( g.b.(.AXlXl.T f.f.f.] I C M 7 q > AX8 AXAX",
"AXAX:.AXQ :.;.AXAXAXp 2.2.g.^.9XAX' 1.' I D M r 7 > 8 : AX8 AXAX",
"AXAX^ AXS -.;.AXAXAXAXI <.1.` v.AXL Y I P Z M r y q 8 ; AX> AXAX",
"AXAXQ AXz 3.7.AXAXAXAXa I.T.AX6.AX`.t.T P D B y q w > O AX: AXAX",
"AXAXG | AXx.Y.R.AXAXAXAXb f.AX6.AX9X7X7.U D M 2 7 w > AX: ; AXAX",
"AXAXAXW.AXP.OX;XAXAXAXAXAXAXAX] AXtXhX@X5.V # j 7 5 - AXq AXAXAX",
"AXAXAX}.AX` OX-X>XAXAXAXAXAXAXAXAXE.!.%.u AXAXU 7 3 o AX: AXAXAX",
"AXAXAX@.>XAXL.:X;XoXAXAXAXAXAXAXAXAXAXAXAXAXx.F y < AXt . AXAXAX",
"AXAXAXAX|.=XAXL.^.Y.W.AXAXAXAXAXAXAXAXAX.X6XG.4.V AXz 1 AXAXAXAX",
"AXAXAXAXAX XAXAX .x.2.P L n AXAXAXAX.X8X7X@X/.} AXAXA AXAXAXAXAX",
"AXAXAXAXAXs W.AXAXg A 7 4 6 AXZ AXq.].{.[.G.G AXAX3.+ AXAXAXAXAX",
"AXAXAXAXAXAX& j.&.AXX o * , AXr AX/ s.c.W & AXh.q.# AXAXAXAXAXAX",
"AXAXAXAXAXAXAXAXl W AXAXAX  AX@ AX% % AXAXAXA.W AXAXAXAXAXAXAXAX",
"AXAXAXAXAXAXAXAXAXX < h c AXAXAXAXAXAXo.w.J # AXAXAXAXAXAXAXAXAX",
"AXAXAXAXAXAXAXAXAXAXAXAX  o AX2 AX0 d 9 AXAXAXAXAXAXAXAXAXAXAXAX",
"AXAXAXAXAXAXAXAXAXAXAXAXAXAXAXAXAXAXAXAXAXAXAXAXAXAXAXAXAXAXAXAX",
"AXAXAXAXAXAXAXAXAXAXAXAXAXAXAXAXAXAXAXAXAXAXAXAXAXAXAXAXAXAXAXAX"
};
